<?xml version="1.0" encoding="UTF-8"?>
<svg version="1.1" xmlns="http://www.w3.org/2000/svg" width="400" height="426">
<path d="M0 0 C132 0 264 0 400 0 C400 31.02 400 62.04 400 94 C388.26086957 95.17391304 388.26086957 95.17391304 382 91 C380.66431979 91.32380126 379.33076989 91.65657551 378 92 C377.34 91.34 376.68 90.68 376 90 C376.33 89.67 376.66 89.34 377 89 C373.07808555 88.33244009 369.22870589 87.88023587 365.25 87.75 C364.51265625 87.72421875 363.7753125 87.6984375 363.015625 87.671875 C360.88794995 87.8061562 360.88794995 87.8061562 359.58203125 89.53125 C358 91 358 91 355.37109375 91.109375 C353.91896484 90.93148437 353.91896484 90.93148437 352.4375 90.75 C351.46683594 90.64171875 350.49617188 90.5334375 349.49609375 90.421875 C347 90 347 90 345 89 C342.4867203 88.87606534 340.01329886 88.81484888 337.5 88.8125 C336.81035156 88.80025391 336.12070312 88.78800781 335.41015625 88.77539062 C333.60522506 88.77011305 331.80082158 88.87815542 330 89 C329.34 89.66 328.68 90.32 328 91 C327.34 90.67 326.68 90.34 326 90 C326 90.66 326 91.32 326 92 C325.38125 92.103125 324.7625 92.20625 324.125 92.3125 C321.63473516 92.87525373 321.63473516 92.87525373 320 96 C312.08510638 97.53191489 312.08510638 97.53191489 308 96 C308 96.66 308 97.32 308 98 C305.25771123 98.07835111 303.08702811 98.02547164 300.4375 97.25 C299.633125 97.1675 298.82875 97.085 298 97 C297.38125 97.639375 296.7625 98.27875 296.125 98.9375 C294 101 294 101 290.5625 101.375 C287 101 287 101 284.703125 100.015625 C281.47435849 98.80250464 278.62457185 98.58330738 275.1875 98.375 C274.02605469 98.30023438 272.86460937 98.22546875 271.66796875 98.1484375 C270.34732422 98.07496094 270.34732422 98.07496094 269 98 C269 97.34 269 96.68 269 96 C268.42507813 96.18304688 267.85015625 96.36609375 267.2578125 96.5546875 C264.74993887 97.04932002 263.31883582 96.80332705 260.875 96.125 C260.19179688 95.94195312 259.50859375 95.75890625 258.8046875 95.5703125 C257 95 257 95 255 94 C255 94.99 255 95.98 255 97 C254.34 97.66 253.68 98.32 253 99 C253 99.33 253 99.66 253 100 C247.52191651 101.74302657 244.6901613 100.65363772 239.5625 98.0625 C237.69903358 97.05874324 235.8416267 96.04328606 234 95 C234 95.99 234 96.98 234 98 C231.1875 97.8125 231.1875 97.8125 228 97 C227.54625 96.195625 227.0925 95.39125 226.625 94.5625 C224.77091035 91.63874324 224.20897365 91.47100214 221 90.625 C217.98843396 89.95196062 217.05221232 89.98259589 214 91 C210.66420156 91 208.1003045 90.21259343 204.9375 89.2421875 C202.67448906 88.7449485 202.67448906 88.7449485 200 91 C196.98059624 93.01293584 194.44935048 93.94407638 191 95 C190.0409375 95.309375 190.0409375 95.309375 189.0625 95.625 C185.9658792 96.18802196 183.13563409 96.23226919 180 96 C179.34 95.01 178.68 94.02 178 93 C175.43717258 92.27034634 175.43717258 92.27034634 173 92 C172.01 93.98 172.01 93.98 171 96 C167.4277974 95.66770208 165.47541901 95.42259468 162.75 93 C158.7648092 90.10167942 154.82079468 90.18721533 150 90 C150 89.34 150 88.68 150 88 C144.6913151 88.58174845 144.6913151 88.58174845 140 91 C137.65319703 90.38242027 135.31847874 89.7166207 133 89 C132.01 89.495 132.01 89.495 131 90 C131.99 90.33 132.98 90.66 134 91 C134 91.33 134 91.66 134 92 C128.06 92.495 128.06 92.495 122 93 C122 93.66 122 94.32 122 95 C121.484375 94.855625 120.96875 94.71125 120.4375 94.5625 C114.46586449 92.99980115 114.46586449 92.99980115 108.5625 93.9375 C108.046875 94.288125 107.53125 94.63875 107 95 C106.67 94.01 106.34 93.02 106 92 C105.505 93.485 105.505 93.485 105 95 C100.95090896 97.69939403 97.76057221 97.79084424 93 97 C90.84849804 95.87992969 88.95387829 94.5739713 86.96875 93.18359375 C81.71541284 90.02533748 75.80595162 90.9754203 70 92 C68.33333333 92 66.66666667 92 65 92 C64.67 91.34 64.34 90.68 64 90 C63.01 89.34 62.02 88.68 61 88 C61 87.34 61 86.68 61 86 C56.38 86 51.76 86 47 86 C46.505 87.98 46.505 87.98 46 90 C42.0487511 92.82353194 38.18868069 94.12296697 33.375 93.625 C32.26125 93.41875 31.1475 93.2125 30 93 C26.63543901 93.72234735 26.63543901 93.72234735 23 95 C7.5346177 99.50692354 7.5346177 99.50692354 0 98 C0 65.66 0 33.32 0 0 Z M338 87 C338 87.33 338 87.66 338 88 C340.31 88 342.62 88 345 88 C345 87.67 345 87.34 345 87 C342.69 87 340.38 87 338 87 Z M214 88 C215 90 215 90 215 90 Z " fill="#6A5949" transform="translate(0,0)"/>
<path d="M0 0 C-0.33 0.99 -0.66 1.98 -1 3 C-1.495 2.814375 -1.99 2.62875 -2.5 2.4375 C-6.15081689 1.79860704 -9.33964724 2.45094709 -13 3 C-13 2.34 -13 1.68 -13 1 C-8.61414671 0.29826347 -4.44209357 -0.10834375 0 0 Z " fill="#614A35" transform="translate(61,86)"/>
<path d="M0 0 C0.845625 0.144375 1.69125 0.28875 2.5625 0.4375 C6.03593149 1.0058797 9.51445662 1.51202393 13 2 C10 4 10 4 7.51953125 3.5390625 C6.62621094 3.23742187 5.73289062 2.93578125 4.8125 2.625 C3.91144531 2.32851562 3.01039063 2.03203125 2.08203125 1.7265625 C1.39496094 1.48679687 0.70789063 1.24703125 0 1 C0 0.67 0 0.34 0 0 Z " fill="#4A4137" transform="translate(281,100)"/>
<path d="M0 0 C1.21816406 0.03480469 1.21816406 0.03480469 2.4609375 0.0703125 C3.68683594 0.09738281 3.68683594 0.09738281 4.9375 0.125 C5.87722656 0.15980469 5.87722656 0.15980469 6.8359375 0.1953125 C6.5059375 0.8553125 6.1759375 1.5153125 5.8359375 2.1953125 C2.5359375 2.1953125 -0.7640625 2.1953125 -4.1640625 2.1953125 C-2.1640625 0.1953125 -2.1640625 0.1953125 0 0 Z " fill="#595542" transform="translate(97.1640625,96.8046875)"/>
<path d="M0 0 C2.64 0.33 5.28 0.66 8 1 C8 1.33 8 1.66 8 2 C5.03 2 2.06 2 -1 2 C-0.67 1.34 -0.34 0.68 0 0 Z " fill="#5A5A3E" transform="translate(309,97)"/>
<path d="M0 0 C2.97 0.33 5.94 0.66 9 1 C9 1.33 9 1.66 9 2 C5.625 2.125 5.625 2.125 2 2 C1.34 1.34 0.68 0.68 0 0 Z " fill="#904C4C" transform="translate(347,91)"/>
<path d="M0 0 C2.97 0.495 2.97 0.495 6 1 C5.67 1.66 5.34 2.32 5 3 C2.525 2.01 2.525 2.01 0 1 C0 0.67 0 0.34 0 0 Z " fill="#52523E" transform="translate(219,91)"/>
<path d="M0 0 C0.66 0.33 1.32 0.66 2 1 C1.01 1.66 0.02 2.32 -1 3 C-1.99 2.67 -2.98 2.34 -4 2 C-2.125 0.9375 -2.125 0.9375 0 0 Z " fill="#424242" transform="translate(44,91)"/>
<path d="M0 0 C2.31 0 4.62 0 7 0 C7 0.33 7 0.66 7 1 C4.69 1 2.38 1 0 1 C0 0.67 0 0.34 0 0 Z " fill="#494036" transform="translate(269,99)"/>
<path d="M0 0 C0.99 0.33 1.98 0.66 3 1 C1.02 1.33 -0.96 1.66 -3 2 C-2.01 1.34 -1.02 0.68 0 0 Z " fill="#4A413C" transform="translate(37,94)"/>
<path d="M0 0 C1.32 0.33 2.64 0.66 4 1 C2.68 1.33 1.36 1.66 0 2 C0 1.34 0 0.68 0 0 Z " fill="#3F3F3F" transform="translate(18,96)"/>
<path d="M0 0 C1.98 0 3.96 0 6 0 C6 0.33 6 0.66 6 1 C4.02 1 2.04 1 0 1 C0 0.67 0 0.34 0 0 Z " fill="#473C3C" transform="translate(70,93)"/>
<path d="M0 0 C2.475 0.495 2.475 0.495 5 1 C4.01 1.33 3.02 1.66 2 2 C1.34 1.34 0.68 0.68 0 0 Z " fill="#5F5F36" transform="translate(156,91)"/>
<path d="M0 0 C1.98 0 3.96 0 6 0 C6 0.33 6 0.66 6 1 C4.02 1 2.04 1 0 1 C0 0.67 0 0.34 0 0 Z " fill="#695C56" transform="translate(330,90)"/>
<path d="M0 0 C1.98 0 3.96 0 6 0 C6 0.33 6 0.66 6 1 C4.02 1 2.04 1 0 1 C0 0.67 0 0.34 0 0 Z " fill="#615B42" transform="translate(364,89)"/>
<path d="M0 0 C1.32 0.33 2.64 0.66 4 1 C3.01 1.495 3.01 1.495 2 2 C1.34 1.34 0.68 0.68 0 0 Z " fill="#514A30" transform="translate(243,101)"/>
<path d="M0 0 C1.65 0 3.3 0 5 0 C5 0.33 5 0.66 5 1 C3.35 1 1.7 1 0 1 C0 0.67 0 0.34 0 0 Z " fill="#884848" transform="translate(303,99)"/>
<path d="M0 0 C1.65 0 3.3 0 5 0 C5 0.33 5 0.66 5 1 C3.35 1 1.7 1 0 1 C0 0.67 0 0.34 0 0 Z " fill="#7F4040" transform="translate(6,99)"/>
<path d="M0 0 C0.66 0.66 1.32 1.32 2 2 C0.68 1.67 -0.64 1.34 -2 1 C-1.34 0.67 -0.68 0.34 0 0 Z " fill="#555548" transform="translate(267,97)"/>
<path d="M0 0 C1.32 0.33 2.64 0.66 4 1 C2.68 1.33 1.36 1.66 0 2 C0 1.34 0 0.68 0 0 Z " fill="#723228" transform="translate(180,97)"/>
<path d="M0 0 C1.32 0 2.64 0 4 0 C3.67 0.66 3.34 1.32 3 2 C2.01 1.34 1.02 0.68 0 0 Z " fill="#3F3232" transform="translate(164,96)"/>
<path d="M0 0 C1.98 0.99 1.98 0.99 4 2 C2.68 1.67 1.36 1.34 0 1 C0 0.67 0 0.34 0 0 Z " fill="#544B34" transform="translate(89,96)"/>
<path d="M0 0 C1.32 0 2.64 0 4 0 C3.67 0.66 3.34 1.32 3 2 C2.01 1.34 1.02 0.68 0 0 Z " fill="#5D511D" transform="translate(174,93)"/>
<path d="M0 0 C0.66 0.66 1.32 1.32 2 2 C1.01 1.67 0.02 1.34 -1 1 C-0.67 0.67 -0.34 0.34 0 0 Z " fill="#BFBF30" transform="translate(301,97)"/>
<path d="M0 0 C4 1 4 1 4 1 Z " fill="#554A4A" transform="translate(237,98)"/>
<path d="M0 0 C1.485 0.99 1.485 0.99 3 2 C2.01 2 1.02 2 0 2 C0 1.34 0 0.68 0 0 Z " fill="#646464" transform="translate(256,95)"/>
<path d="M0 0 C1.485 0.99 1.485 0.99 3 2 C2.01 2 1.02 2 0 2 C0 1.34 0 0.68 0 0 Z " fill="#555545" transform="translate(190,95)"/>
<path d="M0 0 C4 1 4 1 4 1 Z " fill="#68683E" transform="translate(396,95)"/>
<path d="M0 0 C4 1 4 1 4 1 Z " fill="#353535" transform="translate(79,93)"/>
<path d="M0 0 C4 1 4 1 4 1 Z " fill="#6A4F4F" transform="translate(136,91)"/>
<path d="M0 0 C4 1 4 1 4 1 Z " fill="#51412C" transform="translate(372,89)"/>
<path d="M0 0 C3 1 3 1 3 1 Z " fill="#1C1C1C" transform="translate(231,99)"/>
<path d="M0 0 C3 1 3 1 3 1 Z " fill="#715C5C" transform="translate(317,97)"/>
<path d="M0 0 C0.99 0.495 0.99 0.495 2 1 C1.01 1.495 1.01 1.495 0 2 C0 1.34 0 0.68 0 0 Z " fill="#5A5A5A" transform="translate(298,97)"/>
<path d="M0 0 C0.66 0.66 1.32 1.32 2 2 C1.34 2 0.68 2 0 2 C0 1.34 0 0.68 0 0 Z " fill="#785C5C" transform="translate(235,96)"/>
<path d="M0 0 C3 1 3 1 3 1 Z " fill="#40402A" transform="translate(185,97)"/>
<path d="M0 0 C3 1 3 1 3 1 Z " fill="#715645" transform="translate(393,96)"/>
<path d="M0 0 C3 1 3 1 3 1 Z " fill="#646458" transform="translate(389,96)"/>
<path d="M0 0 C3 1 3 1 3 1 Z " fill="#675147" transform="translate(119,96)"/>
<path d="M0 0 C3 1 3 1 3 1 Z " fill="#8C8C26" transform="translate(25,95)"/>
<path d="M0 0 C3 1 3 1 3 1 Z " fill="#72694E" transform="translate(194,94)"/>
<path d="M0 0 C3 1 3 1 3 1 Z " fill="#7B7171" transform="translate(123,94)"/>
<path d="M0 0 C3 1 3 1 3 1 Z " fill="#717171" transform="translate(381,92)"/>
<path d="M0 0 C3 1 3 1 3 1 Z " fill="#80802A" transform="translate(208,92)"/>
<path d="M0 0 C3 1 3 1 3 1 Z " fill="#6B5151" transform="translate(200,90)"/>
<path d="M0 0 C3 1 3 1 3 1 Z " fill="#553131" transform="translate(61,90)"/>
<path d="M0 0 C3 1 3 1 3 1 Z " fill="#796D18" transform="translate(361,88)"/>
<path d="M0 0 C2 1 2 1 2 1 Z " fill="#BF9F20" transform="translate(295,100)"/>
<path d="M0 0 C2 1 2 1 2 1 Z " fill="#737359" transform="translate(277,99)"/>
<path d="M0 0 C2 1 2 1 2 1 Z " fill="#000000" transform="translate(12,99)"/>
<path d="M0 0 C2 1 2 1 2 1 Z " fill="#BF4000" transform="translate(3,99)"/>
<path d="M0 0 C2 1 2 1 2 1 Z " fill="#6A6A6A" transform="translate(228,98)"/>
<path d="M0 0 C2 1 2 1 2 1 Z " fill="#AAAA2A" transform="translate(16,98)"/>
<path d="M0 0 C2 1 2 1 2 1 Z " fill="#6A6A6A" transform="translate(263,97)"/>
<path d="M0 0 C2 1 2 1 2 1 Z " fill="#202020" transform="translate(104,96)"/>
<path d="M0 0 C2 1 2 1 2 1 Z " fill="#6A6A2A" transform="translate(23,96)"/>
<path d="" fill="#402A2A" transform="translate(0,0)"/>
<path d="" fill="#6A6A6A" transform="translate(0,0)"/>
<path d="M0 0 C2 1 2 1 2 1 Z " fill="#6A6A2A" transform="translate(108,95)"/>
<path d="M0 0 C2 1 2 1 2 1 Z " fill="#AA2A2A" transform="translate(87,95)"/>
<path d="M0 0 C2 1 2 1 2 1 Z " fill="#735339" transform="translate(112,94)"/>
<path d="M0 0 C2 1 2 1 2 1 Z " fill="#2A2A2A" transform="translate(32,94)"/>
<path d="M0 0 C2 1 2 1 2 1 Z " fill="#555555" transform="translate(28,94)"/>
<path d="M0 0 C2 1 2 1 2 1 Z " fill="#404040" transform="translate(324,93)"/>
<path d="M0 0 C2 1 2 1 2 1 Z " fill="#402020" transform="translate(114,93)"/>
<path d="M0 0 C2 1 2 1 2 1 Z " fill="#402020" transform="translate(84,93)"/>
<path d="M0 0 C2 1 2 1 2 1 Z " fill="#404040" transform="translate(65,93)"/>
<path d="M0 0 C2 1 2 1 2 1 Z " fill="#000000" transform="translate(211,91)"/>
<path d="M0 0 C2 1 2 1 2 1 Z " fill="#614F4F" transform="translate(345,90)"/>
<path d="M0 0 C2 1 2 1 2 1 Z " fill="#614F4F" transform="translate(217,90)"/>
<path d="M0 0 C2 1 2 1 2 1 Z " fill="#808080" transform="translate(154,90)"/>
<path d="M0 0 C2 1 2 1 2 1 Z " fill="#6A4A4A" transform="translate(142,90)"/>
<path d="M0 0 C2 1 2 1 2 1 Z " fill="#5A5A4A" transform="translate(134,90)"/>
<path d="M0 0 C2 1 2 1 2 1 Z " fill="#2A2A2A" transform="translate(147,89)"/>
<path d="M0 0 C2 1 2 1 2 1 Z " fill="#5D5D5D" transform="translate(370,88)"/>
<path d="" fill="#404040" transform="translate(0,0)"/>
<path d="" fill="#555555" transform="translate(0,0)"/>
<path d="" fill="#000000" transform="translate(0,0)"/>
<path d="" fill="#808080" transform="translate(0,0)"/>
<path d="" fill="#555555" transform="translate(0,0)"/>
<path d="" fill="#808040" transform="translate(0,0)"/>
<path d="" fill="#000000" transform="translate(0,0)"/>
<path d="" fill="#555555" transform="translate(0,0)"/>
<path d="" fill="#808000" transform="translate(0,0)"/>
<path d="" fill="#000000" transform="translate(0,0)"/>
<path d="" fill="#804040" transform="translate(0,0)"/>
<path d="" fill="#666633" transform="translate(0,0)"/>
<path d="" fill="#808080" transform="translate(0,0)"/>
<path d="" fill="#000000" transform="translate(0,0)"/>
<path d="" fill="#555555" transform="translate(0,0)"/>
<path d="" fill="#000000" transform="translate(0,0)"/>
<path d="" fill="#6D4949" transform="translate(0,0)"/>
<path d="" fill="#808000" transform="translate(0,0)"/>
<path d="" fill="#000000" transform="translate(0,0)"/>
<path d="" fill="#808080" transform="translate(0,0)"/>
<path d="" fill="#404040" transform="translate(0,0)"/>
<path d="" fill="#555555" transform="translate(0,0)"/>
<path d="" fill="#804040" transform="translate(0,0)"/>
<path d="" fill="#804040" transform="translate(0,0)"/>
<path d="" fill="#000000" transform="translate(0,0)"/>
<path d="" fill="#808080" transform="translate(0,0)"/>
<path d="" fill="#555555" transform="translate(0,0)"/>
<path d="" fill="#000000" transform="translate(0,0)"/>
<path d="" fill="#000000" transform="translate(0,0)"/>
<path d="" fill="#606040" transform="translate(0,0)"/>
<path d="" fill="#555555" transform="translate(0,0)"/>
<path d="" fill="#000000" transform="translate(0,0)"/>
<path d="" fill="#808080" transform="translate(0,0)"/>
<path d="" fill="#805555" transform="translate(0,0)"/>
<path d="" fill="#666633" transform="translate(0,0)"/>
<path d="" fill="#804040" transform="translate(0,0)"/>
<path d="" fill="#000000" transform="translate(0,0)"/>
<path d="" fill="#000000" transform="translate(0,0)"/>
<path d="" fill="#000000" transform="translate(0,0)"/>
<path d="" fill="#804040" transform="translate(0,0)"/>
<path d="" fill="#FF0000" transform="translate(0,0)"/>
<path d="" fill="#000000" transform="translate(0,0)"/>
<path d="" fill="#555555" transform="translate(0,0)"/>
<path d="" fill="#555555" transform="translate(0,0)"/>
<path d="" fill="#808080" transform="translate(0,0)"/>
<path d="" fill="#808080" transform="translate(0,0)"/>
<path d="" fill="#6D4949" transform="translate(0,0)"/>
<path d="" fill="#000000" transform="translate(0,0)"/>
<path d="" fill="#000000" transform="translate(0,0)"/>
<path d="" fill="#5D5D46" transform="translate(0,0)"/>
<path d="" fill="#808000" transform="translate(0,0)"/>
<path d="" fill="#666633" transform="translate(0,0)"/>
<path d="" fill="#808080" transform="translate(0,0)"/>
<path d="" fill="#808080" transform="translate(0,0)"/>
<path d="" fill="#6D4949" transform="translate(0,0)"/>
<path d="" fill="#808080" transform="translate(0,0)"/>
<path d="" fill="#000000" transform="translate(0,0)"/>
<path d="" fill="#666666" transform="translate(0,0)"/>
<path d="" fill="#666633" transform="translate(0,0)"/>
<path d="" fill="#000000" transform="translate(0,0)"/>
<path d="" fill="#000000" transform="translate(0,0)"/>
<path d="" fill="#808080" transform="translate(0,0)"/>
<path d="" fill="#715539" transform="translate(0,0)"/>
<path d="" fill="#664D4D" transform="translate(0,0)"/>
<path d="" fill="#000000" transform="translate(0,0)"/>
<path d="" fill="#808080" transform="translate(0,0)"/>
<path d="" fill="#555555" transform="translate(0,0)"/>
<path d="" fill="#555555" transform="translate(0,0)"/>
<path d="" fill="#715555" transform="translate(0,0)"/>
<path d="" fill="#000000" transform="translate(0,0)"/>
<path d="" fill="#FF0000" transform="translate(0,0)"/>
<path d="" fill="#808080" transform="translate(0,0)"/>
</svg>
